<svg width="109" height="40" viewBox="0 0 109 40" fill="none" xmlns="http://www.w3.org/2000/svg">
    <g clip-path="url(#clip0_658_14756)">
        <path
            d="M53.1904 15L46.3984 25H50.7504L51.7384 23.484H59.0984L60.0944 25H64.4464L57.5904 15H53.1904V15ZM53.2624 21.14L55.4024 17.852L57.5584 21.14H53.2624V21.14Z"
            fill="#FCFCFC" />
        <path d="M69.9013 15H65.9453V25H69.9013V15Z" fill="#FCFCFC" />
        <path
            d="M89.1511 16.516C88.6231 16.048 87.8951 15.676 86.9671 15.404C86.0391 15.132 84.8591 15 83.4391 15H72.0391V25H83.4391C84.7911 25 85.9231 24.864 86.8351 24.596C87.7471 24.324 88.4831 23.956 89.0351 23.484C89.5871 23.012 89.9871 22.48 90.2311 21.884C90.4751 21.288 90.5951 20.656 90.5951 20C90.5951 19.344 90.4871 18.716 90.2711 18.116C90.0551 17.516 89.6831 16.984 89.1551 16.516H89.1511ZM86.3111 20.82C86.1991 21.052 86.0191 21.248 85.7711 21.408C85.5231 21.564 85.1911 21.68 84.7831 21.76C84.3711 21.84 83.8711 21.876 83.2791 21.876H75.9951V18.124H83.2791C83.8711 18.124 84.3711 18.164 84.7831 18.24C85.1951 18.32 85.5231 18.436 85.7711 18.592C86.0191 18.748 86.1991 18.944 86.3111 19.18C86.4231 19.412 86.4791 19.688 86.4791 20C86.4791 20.312 86.4231 20.588 86.3111 20.82V20.82Z"
            fill="#FCFCFC" />
        <path
            d="M104.446 25H108.798L101.942 15H97.542L90.75 25H95.102L96.09 23.484H103.45L104.446 25ZM97.618 21.14L99.758 17.852L101.914 21.14H97.618V21.14Z"
            fill="#FCFCFC" />
        <path fill-rule="evenodd" clip-rule="evenodd"
            d="M20.028 40C31.044 40 40.008 31.024 40 20.012C39.988 8.876 31.048 0 19.836 0C8.964 0 0.00400134 9.028 0 19.992C-0.00399866 31.044 8.96 40 20.028 40ZM19.8592 36.7992C29.2632 36.8152 36.7992 29.3392 36.8032 19.9872C36.8072 10.7472 29.2832 3.20723 20.0472 3.19923C10.7592 3.19123 3.21915 10.6992 3.20315 19.9752C3.18715 29.1832 10.7112 36.7832 19.8592 36.7992Z"
            fill="#FCFCFC" />
        <path
            d="M31.3881 12.8849C30.5561 11.7569 29.1841 11.8329 27.4641 11.0209C25.4721 10.0849 23.7081 10.7449 22.8161 12.7489C22.0801 14.4009 21.3441 16.0529 20.6161 17.7089C20.8161 15.9169 21.0041 14.1249 21.1881 12.3329C21.4201 10.1129 20.2121 8.66087 17.9801 8.48087C16.1961 8.33687 15.0441 7.62087 13.7201 8.15287C13.2761 8.32887 12.9801 8.54487 12.8841 8.61287C11.7561 9.44487 11.8321 10.8169 11.0201 12.5369C10.0841 14.5289 10.7441 16.2929 12.7481 17.1849C14.4001 17.9209 16.0561 18.6569 17.7121 19.3849C15.9121 19.1889 14.1121 19.0009 12.3121 18.8089C10.1321 18.5769 8.68014 19.7769 8.49214 21.9689C8.33214 23.8649 7.58014 25.0129 8.14414 26.3009C8.19214 26.4089 8.34414 26.7409 8.63614 27.1169C9.51614 28.2409 10.8721 28.1929 12.4881 28.9609C14.5121 29.9209 16.2801 29.2689 17.1921 27.2289C17.9281 25.5809 18.6601 23.9369 19.3841 22.2849C19.1881 24.0849 19.0001 25.8809 18.8081 27.6809C18.5761 29.8609 19.7761 31.3129 21.9681 31.5009C23.8641 31.6609 25.0121 32.4129 26.3001 31.8489C26.4081 31.8009 26.7401 31.6489 27.1161 31.3569C28.2401 30.4769 28.1921 29.1209 28.9601 27.5049C29.9201 25.4809 29.2681 23.7129 27.2281 22.8009C25.5841 22.0649 23.9361 21.3329 22.2881 20.6089C24.0801 20.8089 25.8681 20.9969 27.6641 21.1809C29.8841 21.4129 31.3361 20.2049 31.5161 17.9729C31.6601 16.1889 32.3761 15.0369 31.8441 13.7129C31.6681 13.2689 31.4521 12.9729 31.3841 12.8769L31.3881 12.8849Z"
            fill="#FCFCFC" />
    </g>
    <defs>
        <clipPath id="clip0_658_14756">
            <rect width="108.8" height="40" fill="white" />
        </clipPath>
    </defs>
</svg>